<svg width="744" height="551" viewBox="0 0 744 551" fill="none" xmlns="http://www.w3.org/2000/svg">
<g id="contacts-img">
<path id="Vector" d="M440.878 454.746C440.927 488.085 433.294 520.986 418.572 550.898H44.4898C40.995 550.898 37.6433 549.51 35.1721 547.039C32.7008 544.568 31.3125 541.216 31.3125 537.721V350.637C88.7892 244.841 221.148 205.67 326.944 263.147C361.418 281.876 390.199 309.561 410.252 343.283C430.304 377.005 440.885 415.513 440.878 454.746V454.746Z" fill="#2F2E41"/>
<path id="Vector_2" d="M664.011 419.955V532.205C664.011 537.163 662.042 541.918 658.536 545.424C655.03 548.929 650.275 550.899 645.318 550.899H43.6618C40.1927 550.899 36.8657 549.521 34.4123 547.068C31.9589 544.616 30.5801 541.289 30.5791 537.82V537.687C30.5791 444.192 321.378 364.444 404.062 333.477C450.753 316.046 502.004 315.119 549.294 330.852C596.585 346.584 637.067 378.028 664.011 419.955L664.011 419.955Z" fill="#3F3D56"/>
<path id="red-sun" d="M618.536 219.029C623.341 189.419 603.233 161.52 573.623 156.715C544.013 151.91 516.114 172.018 511.309 201.628C506.504 231.238 526.612 259.137 556.222 263.943C585.832 268.748 613.731 248.639 618.536 219.029Z" fill="#FF4779"/>
<path id="tree-left" d="M281.36 222.795C281.36 230.335 281.047 237.531 280.42 244.385C272.32 333.815 212.84 365.735 140.68 365.735C138.87 365.735 137.08 365.715 135.29 365.665C131.69 365.595 128.12 365.425 124.6 365.175C92.21 362.885 63.17 353.355 41.28 334.065C37.5426 330.767 34.0438 327.208 30.81 323.415C11.53 300.825 0 268.125 0 222.795C0 149.125 68 61.5248 109.45 14.9748C113.247 10.6951 117.884 7.24261 123.073 4.83234C128.261 2.42207 133.891 1.10558 139.61 0.964804H140.01C146.024 0.856113 151.99 2.05227 157.497 4.47088C163.004 6.88949 167.921 10.4731 171.91 14.9748C190.785 36.0786 208.374 58.2987 224.58 81.5148C254.69 125.065 281.36 176.665 281.36 222.795Z" fill="#08CFCF"/>
<path id="Vector_3" d="M135.55 349.525L187.01 277.625L135.42 357.415L135.29 365.665L134.14 436.415L133.72 462.365H119.51L120.49 443.625L124.6 365.175L130.15 259.185L130.1 258.355L130.2 258.205L130.24 257.355L130.72 248.195L79.0098 168.215L130.88 240.685L131 242.805L135.19 162.725L93.2898 84.4949L90.9198 80.0748L93.7298 84.3748L135.74 148.655L136.36 124.745L137.5 81.3848L139.61 0.964844H140.01L139.57 81.3848L139.39 113.545L166.69 81.3848L183.46 61.6348L169.62 81.3848L139.2 124.815L138.04 196.525L179.19 127.715L137.87 207.075L137.22 246.945L196.95 151.155L141.6 252.425L136.99 260.855L135.55 349.525Z" fill="#3F3D56"/>
<path id="tree-middle" d="M510.74 174.235C510.74 180.575 510.464 186.612 509.91 192.345C503.13 263.715 455.42 289.215 397.57 289.215C396.12 289.215 394.67 289.195 393.24 289.165C390.34 289.105 387.474 288.969 384.64 288.755C376.19 288.208 367.804 286.917 359.58 284.895C339.14 279.815 321.42 269.985 308.32 254.135C293.34 236.005 284.41 210.005 284.41 174.235C284.41 147.675 295.4 118.865 310.53 91.7852C327.05 62.2152 348.51 34.7152 365.98 14.4552C369.784 10.0296 374.477 6.45542 379.755 3.96562C385.033 1.47583 390.776 0.12636 396.61 0.00520406H397.01C403.102 -0.0912144 409.141 1.15322 414.699 3.65035C420.256 6.14748 425.197 9.83621 429.17 14.4552C462.65 53.2652 510.74 118.675 510.74 174.235Z" fill="#08CFCF"/>
<path id="Vector_4" d="M393.45 276.175L434.84 218.345L393.35 282.525L393.24 289.165L392.77 318.115L392.46 337.675L391.98 366.945H380.55L381.89 341.335L383.66 307.505L384.64 288.755L389.1 203.505L389.07 202.845L389.14 202.725L389.56 194.665L347.97 130.325L389.69 188.625L389.79 190.335L393.16 125.915L388.03 116.325H388.02L357.55 59.4349L393.6 114.605L396.61 0.00488281H397.01L396.53 86.3549L431.98 44.6049L396.39 95.4249L395.99 119.765L395.45 153.105L411.17 126.815L428.55 97.7549L412.96 127.695L395.31 161.595L394.79 193.665L430.3 136.715L442.84 116.615L431.49 137.375L394.61 204.855L393.45 276.175Z" fill="#3F3D56"/>
<path id="tree-right" d="M743.87 294.455C743.87 351.835 709.76 371.865 667.68 371.865C666.71 371.865 665.74 371.855 664.77 371.835C662.82 371.785 660.89 371.705 658.98 371.555C650.068 371.029 641.282 369.186 632.91 366.085C608.32 356.635 591.5 334.755 591.5 294.455C591.503 291.882 591.65 289.312 591.94 286.755C593.35 273.885 598.11 260.455 604.61 247.405C608.337 239.99 612.47 232.785 616.99 225.825C622.75 216.885 628.94 208.415 634.95 200.785C638.752 195.94 643.586 192.003 649.101 189.261C654.615 186.519 660.672 185.041 666.83 184.935C666.97 184.935 667.11 184.925 667.26 184.935C673.634 184.848 679.942 186.233 685.694 188.982C691.445 191.731 696.485 195.77 700.42 200.785C721.07 227.015 743.87 263.065 743.87 294.455Z" fill="#08CFCF"/>
<path id="Vector_5" d="M664.91 363.085L692.77 324.155L664.84 367.365L664.77 371.835L663.98 419.905L663.91 424.195H656.22L656.98 409.685L658.98 371.555L661.98 314.165L661.95 313.715L662 313.635L662.29 308.215L634.29 264.895L662.37 304.145L662.44 305.295L664.71 261.925L640.74 217.165L665.01 254.325L666.83 184.935C666.97 184.935 667.11 184.925 667.26 184.935L666.98 235.295L690.85 207.185L666.88 241.395L666.25 280.235L688.54 242.965L666.16 285.945L665.81 307.535L698.16 255.665L665.69 315.065L664.91 363.085Z" fill="#3F3D56"/>
</g>
</svg>
