<svg width="50" height="23" viewBox="0 0 50 23" fill="none" xmlns="http://www.w3.org/2000/svg">
<path d="M12.9766 5.07031H22.6797V23H21.5723C18.5254 23 16.334 22.4668 14.998 21.4004C13.6504 20.3223 12.9766 18.541 12.9766 16.0566V5.07031ZM0.285156 14.2461C0.285156 12.957 0.455078 11.7617 0.794922 10.6602C1.13477 9.54688 1.66211 8.57422 2.37695 7.74219C3.92383 5.96094 6.13867 5.07031 9.02148 5.07031H10.375V23H9.46094C6.50781 23 4.22266 22.1914 2.60547 20.5742C1.05859 19.0273 0.285156 16.918 0.285156 14.2461ZM35.9512 23C30.1504 23 27.25 20.3516 27.25 15.0547V5.17578L34.6855 0.306641H37.3223V23H35.9512ZM39.8711 5.07031H48.291V10.959H39.8711V5.07031ZM39.8887 15.4941H49.6445V17.041C49.6445 19.0332 49.0352 20.5039 47.8164 21.4531C46.4922 22.4844 44.3535 23 41.4004 23H39.8887V15.4941Z" fill="white"/>
</svg>
