<svg width="301" height="301" viewBox="0 0 301 301" fill="none" xmlns="http://www.w3.org/2000/svg">
<g id="portfolio-1">
<path id="Vector" d="M300.596 151.485H0.595703V300.99H300.596V151.485Z" fill="#3F3D56"/>
<path id="Vector_2" d="M300.596 0.990234H0.595703V155.446H300.596V0.990234Z" fill="#F2F2F2"/>
<path id="Vector_3" d="M287.769 158.081C274.894 155.899 262.513 154.026 250.624 152.461L255.324 143.349C253.739 142.798 246.777 148.017 246.777 148.017L252.944 121.566C244.974 122.527 240.921 149.535 240.921 149.535L232.016 140.404L236.328 150.67C205.053 146.889 173.588 144.909 142.086 144.739L146.109 136.939C144.524 136.389 137.561 141.607 137.561 141.607L143.729 115.157C135.759 116.118 131.706 143.126 131.706 143.126L122.801 133.994L127.367 144.868C109.258 145.167 91.1757 146.395 73.1921 148.548C77.2608 136.398 91.0822 124.843 91.0822 124.843C80.5268 127.982 74.99 133.243 72.0968 138.147C71.8383 113.078 76.0067 88.1602 84.4103 64.5403C84.4103 64.5403 62.5927 112.017 65.3766 143.886L65.7096 149.545C47.2132 152.193 39.9365 158.416 39.9365 158.416L287.769 158.081Z" fill="#3F3D56"/>
<path id="left-light-circle" opacity="0.4" d="M128.714 72.129C140.7 72.129 150.417 62.4121 150.417 50.4258C150.417 38.4395 140.7 28.7227 128.714 28.7227C116.728 28.7227 107.011 38.4395 107.011 50.4258C107.011 62.4121 116.728 72.129 128.714 72.129Z" fill="#08CFCF"/>
</g>
</svg>
