<svg width="301" height="301" viewBox="0 0 301 301" fill="none" xmlns="http://www.w3.org/2000/svg">
<g id="portfolio-3">
<path id="Vector" d="M300.221 152.475H0.220703V300.99H300.221V152.475Z" fill="#3F3D56"/>
<path id="Vector_2" d="M300.221 0.990234H0.220703V155.446H300.221V0.990234Z" fill="#F2F2F2"/>
<path id="Vector_3" d="M148.265 38.1876L146.706 38.3094L154.523 138.362L156.081 138.24L148.265 38.1876Z" fill="#3F3D56"/>
<path id="Vector_4" d="M187.351 99.9992C187.351 130.218 163.119 157.842 163.119 157.842C157.015 140.241 153.846 121.755 153.739 103.126C153.739 72.9069 157.939 48.4096 163.119 48.4096C168.3 48.4096 187.351 69.7803 187.351 99.9992Z" fill="#3F3D56"/>
<path id="Vector_5" d="M118.651 113.723C130.247 141.629 163.223 157.84 163.223 157.84C162.106 139.244 157.94 120.957 150.889 103.713C139.294 75.8073 126.016 54.7967 121.232 56.7845C116.448 58.7723 107.056 85.8173 118.651 113.723Z" fill="#3F3D56"/>
<path id="Vector_6" d="M147.485 48.4097C153.097 48.4097 157.647 43.8601 157.647 38.2481C157.647 32.636 153.097 28.0865 147.485 28.0865C141.873 28.0865 137.324 32.636 137.324 38.2481C137.324 43.8601 141.873 48.4097 147.485 48.4097Z" fill="#3F3D56"/>
<path id="single-red-dot" d="M151.394 36.6851C153.984 36.6851 156.084 34.5854 156.084 31.9952C156.084 29.405 153.984 27.3052 151.394 27.3052C148.804 27.3052 146.704 29.405 146.704 31.9952C146.704 34.5854 148.804 36.6851 151.394 36.6851Z" fill="#FF4779"/>
<path id="Vector_7" d="M287.394 166.001C274.519 163.82 262.138 161.947 250.249 160.382L254.949 151.27C253.364 150.719 246.402 155.937 246.402 155.937L252.569 129.487C244.599 130.448 240.546 157.456 240.546 157.456L231.641 148.325L235.953 158.59C204.678 154.81 173.213 152.829 141.711 152.659L145.734 144.86C144.149 144.31 137.186 149.528 137.186 149.528L143.354 123.077C135.384 124.039 131.331 151.046 131.331 151.046L122.426 141.915L126.992 152.788C108.883 153.087 90.8007 154.316 72.8171 156.468C76.8858 144.319 90.7072 132.763 90.7072 132.763C80.1519 135.903 74.615 141.163 71.7218 146.068C71.4633 120.999 75.6317 96.081 84.0352 72.4611C84.0352 72.4611 62.2177 119.938 65.0016 151.807L65.3346 157.466C46.8382 160.114 39.5615 166.336 39.5615 166.336L287.394 166.001Z" fill="#3F3D56"/>
<path id="right-light-circle" opacity="0.4" d="M236.88 75.7482C253.967 75.7482 267.818 61.8966 267.818 44.8097C267.818 27.7228 253.967 13.8712 236.88 13.8712C219.793 13.8712 205.941 27.7228 205.941 44.8097C205.941 61.8966 219.793 75.7482 236.88 75.7482Z" fill="#08CFCF"/>
</g>
</svg>
