<svg width="301" height="301" viewBox="0 0 301 301" fill="none" xmlns="http://www.w3.org/2000/svg">
<g id="portfolio-2">
<path id="Vector" d="M300.615 152.475H0.615234V300.99H300.615V152.475Z" fill="#3F3D56"/>
<path id="Vector_2" d="M300.615 0.990234H0.615234V155.446H300.615V0.990234Z" fill="#F2F2F2"/>
<path id="Vector_3" d="M113.457 45.3053L111.952 45.7294L139.171 142.325L140.676 141.901L113.457 45.3053Z" fill="#3F3D56"/>
<path id="Vector_4" d="M163.869 98.287C169.775 127.923 151.409 159.75 151.409 159.75C141.983 143.681 135.262 126.172 131.517 107.922C125.611 78.2858 124.942 53.4401 130.023 52.4277C135.103 51.4153 157.964 68.6507 163.869 98.287Z" fill="#3F3D56"/>
<path id="Vector_5" d="M99.1761 125.171C116.002 150.273 151.51 159.727 151.51 159.727C146.781 141.707 139.121 124.588 128.836 109.054C112.011 83.9524 94.8827 65.9419 90.5795 68.8262C86.2764 71.7106 82.3505 100.07 99.1761 125.171Z" fill="#3F3D56"/>
<path id="Vector_6" d="M112.705 55.6788C118.317 55.6788 122.867 51.1293 122.867 45.5172C122.867 39.9051 118.317 35.3556 112.705 35.3556C107.093 35.3556 102.543 39.9051 102.543 45.5172C102.543 51.1293 107.093 55.6788 112.705 55.6788Z" fill="#3F3D56"/>
<path id="left-red-dot" d="M115.316 43.3103C117.906 43.3103 120.006 41.2105 120.006 38.6203C120.006 36.0301 117.906 33.9304 115.316 33.9304C112.726 33.9304 110.626 36.0301 110.626 38.6203C110.626 41.2105 112.726 43.3103 115.316 43.3103Z" fill="#FF4779"/>
<path id="Vector_7" d="M200.5 47.7557L156.669 138.036L158.076 138.719L201.907 48.4386L200.5 47.7557Z" fill="#3F3D56"/>
<path id="Vector_8" d="M204.386 121.53C189.111 147.604 154.239 159.19 154.239 159.19C157.869 140.917 164.479 123.366 173.804 107.238C189.079 81.1635 205.086 62.1492 209.556 64.7678C214.026 67.3864 219.661 95.4559 204.386 121.53Z" fill="#3F3D56"/>
<path id="Vector_9" d="M138.173 98.643C134.072 128.582 154.33 159.239 154.33 159.239C162.767 142.629 168.415 124.745 171.049 106.302C175.15 76.3626 174.313 51.522 169.181 50.819C164.049 50.116 142.274 68.7036 138.173 98.643Z" fill="#3F3D56"/>
<path id="Vector_10" d="M201.204 58.2584C206.816 58.2584 211.365 53.7089 211.365 48.0968C211.365 42.4847 206.816 37.9352 201.204 37.9352C195.592 37.9352 191.042 42.4847 191.042 48.0968C191.042 53.7089 195.592 58.2584 201.204 58.2584Z" fill="#3F3D56"/>
<path id="right-left-dot" d="M207.736 49.3669C210.327 49.3669 212.426 47.2672 212.426 44.677C212.426 42.0868 210.327 39.987 207.736 39.987C205.146 39.987 203.046 42.0868 203.046 44.677C203.046 47.2672 205.146 49.3669 207.736 49.3669Z" fill="#FF4779"/>
<path id="middle-light-circle" opacity="0.4" d="M37.6885 141.436C49.6748 141.436 59.3916 131.719 59.3916 119.733C59.3916 107.746 49.6748 98.0296 37.6885 98.0296C25.7022 98.0296 15.9854 107.746 15.9854 119.733C15.9854 131.719 25.7022 141.436 37.6885 141.436Z" fill="#08CFCF"/>
</g>
</svg>
